<?xml version="1.0" encoding="UTF-8"?>
<svg id="Layer_2" data-name="Layer 2" xmlns="http://www.w3.org/2000/svg" viewBox="0 0 984.05 543.58">
  <defs>
    <style>
      .cls-1 {
        font-family: Caudex, Caudex;
        font-size: 110.47px;
        opacity: .92;
      }

      .cls-1, .cls-2 {
        fill: #fff;
      }

      .cls-3 {
        fill: #191919;
      }

      .cls-3, .cls-4, .cls-2 {
        stroke-width: 0px;
      }

      .cls-4 {
        fill: #231f20;
      }
    </style>
  </defs>
  <g id="Layer_3" data-name="Layer 3">
    <rect class="cls-3" width="984.05" height="543.58"/>
  </g>
  <g id="Layer_2-2" data-name="Layer 2">
    <path class="cls-2" d="m757.57,370.58l-1.06-1.99c-3.44-6.47-5.16-13.79-4.97-21.18.26-10.37,4.24-20.28,11.22-27.93l1.56-1.71,2.17.78c22.42,8.03,43.82,18.85,63.6,32.16l5.89,3.96-6.75,2.21c-22.44,7.34-45.79,11.9-69.41,13.53l-2.24.15Zm8.82-44.68c-4.93,6.14-7.72,13.75-7.92,21.68-.13,5.45.96,10.85,3.18,15.75,19.83-1.54,39.44-5.18,58.45-10.86-16.91-10.75-34.94-19.67-53.72-26.58Z"/>
    <path class="cls-2" d="m572.35,365.57l-.97-.12c-6.81-.8-13.56-2.15-20.06-4-6.33-1.78-12.61-4.08-18.64-6.85l-5.22-2.39,4.54-3.51c4.67-3.6,9.62-6.92,14.71-9.85,7.67-4.42,15.81-8.06,24.2-10.82l1.32-.44,1.26.6c7.24,3.47,11.79,10.89,11.59,18.92-.19,7.82-4.73,14.73-11.84,18.02l-.89.41Zm-31.29-14.91c3.98,1.59,8.05,2.97,12.14,4.12,5.83,1.66,11.86,2.88,17.96,3.66,4.21-2.31,6.86-6.63,6.98-11.48h0c.12-4.85-2.39-9.37-6.48-11.85-7.44,2.55-14.67,5.83-21.5,9.77-3.1,1.78-6.15,3.72-9.11,5.78Z"/>
    <path class="cls-2" d="m610.25,485.42l.79-5.13.37-3.03c.37-4.1.1-8.23-.79-12.28-2.36-10.7-8.95-20.13-18.09-25.88l-4.06-2.55,3.69-3.05c1.32-1.09,2.4-2.44,3.17-3.95-1.6-2.14-2.77-4.69-3.36-7.37-.76-3.45-.57-7.02.55-10.34,1.82-5.42,5.9-9.74,11.21-11.84l9.16-3.64-4.87,8.57c-1.52,2.67-1.99,5.8-1.33,8.8,1.51,6.84,10.55,10.62,17.03,9.19l.16-.03c1.83-.31,3.67-.67,5.47-1.07,27.92-6.15,52.37-22.42,68.81-45.8l2.52-3.59,2.91,3.28c2.98,3.36,6.17,6.56,9.5,9.5,3.97,3.55,8.26,6.86,12.75,9.86l.51.33c.46.3.92.6,1.39.89,1.31.6,2.75.75,4.17.44,3.15-.69,5.29-3.47,5.19-6.66-.12-.67-.24-1.34-.36-2v-.06c-.21-.98-.41-1.97-.63-2.96-.82-3.73-1.84-7.43-3.01-11-1.94-5.96-4.38-11.77-7.25-17.28l6.1-3.3c3.5,6.25,7.6,12.16,12.19,17.58,5.92,7.04,12.73,13.37,20.26,18.85l3.17,2.31-2.68,2.87c-39.95,42.69-90.96,73.28-147.5,88.48l-.16.04c-.64.17-1.28.35-1.93.51l-5.09,1.3Zm-10.58-49.8c8.9,6.8,15.27,16.75,17.72,27.86.92,4.17,1.27,8.4,1.05,12.61,52.93-14.76,100.77-43.37,138.76-82.94-5.57-4.33-10.74-9.12-15.43-14.29.41,1.56.79,3.13,1.14,4.71.22,1.02.43,2.02.63,3.03l.03.13c.15.79.29,1.59.43,2.38l.04.39c.4,6.68-4.03,12.58-10.61,14.02-2.59.57-5.31.36-7.78-.59l-1.02.16-.89-1.13c-.35-.22-.69-.44-1.03-.67l-.55-.12-.46-.54c-4.64-3.12-9.08-6.56-13.18-10.23-2.47-2.18-4.87-4.5-7.17-6.92-17.37,22.95-42.25,38.89-70.46,45.12-1.88.42-3.81.79-5.72,1.12-9.94,2.14-22.81-3.58-25.21-14.49-.17-.78-.3-1.57-.37-2.36-.17.38-.33.78-.47,1.19-.72,2.13-.84,4.42-.35,6.63.4,1.82,1.21,3.54,2.35,4.99.25.33.48.59.73.86l1.45,1.51-.66,1.99c-.68,2.03-1.68,3.92-2.96,5.6Z"/>
    <g>
      <path class="cls-2" d="m694.93,322.14l-2.15-2.17c-3.44-3.48-7.08-6.73-10.82-9.66-12.19-9.6-25.91-16.53-40.81-20.63-1.21-.34-2.5-.67-3.96-1.02-3.81-.92-7.73-1.65-11.69-2.18l-.21-.03c-.36-.05-.71-.09-1.07-.14-6-.73-12.03-1-17.99-.81.25,1.75,1.42,2.37,4.29,3.01l5.15,1.15-3.1,4.27c-1.46,2-2.51,4.2-3.14,6.53l-.93,3.43-3.41-1.01c-12.03-3.58-18.14-12.1-17.41-24.14-3.5-2.07-5.8-5.89-5.83-10.09l-.02-2.48,2.34-.82c2.4-.84,4.62-2.09,6.59-3.7,1.2-.96,2.28-2.03,3.24-3.2,2.64-3.21,4.33-7.11,4.89-11.26.02-.11.03-.23.04-.34.02-.17.03-.33.04-.5v-.04s.06-2.49.06-2.49v-.03c-.42-2.02-2.08-3.57-4.17-3.85-2.69-.38-5.19,1.54-5.55,4.25-.04.3-.05.59-.04.87.11.37.21.74.32,1.11h0s.17.59.17.59c0,.02.01.04.02.05l.18.6c.02.06.04.11.05.16l-.06.03-.1.65-1.02-.16-5.16,2.23c-.23-.43-.43-.87-.59-1.31l-.29-.4.05-.31c-.19-.63-.33-1.28-.41-1.93-2.65-9.41-4.11-19.16-4.31-28.99v-.31s.1-.68.1-.68l.14-.37c4.51-11.47,10.8-22.11,18.69-31.63.08-.65.16-1.29.24-1.93,8.55-63.86,67.5-108.85,131.33-100.31,63.86,8.55,108.86,67.47,100.31,131.33-2.27,16.98-8.06,32.87-17.2,47.21l-3.6,5.65-2.53-6.21c-.36-.88-.86-1.77-1.47-2.65-.97-1.37-2.18-2.54-3.62-3.48-.57-.38-1.16-.71-1.77-.98-1.25-.58-2.54-.96-3.9-1.14-7.4-.97-14.33,4.25-15.33,11.71-.46,3.45.4,6.92,2.42,9.76,1.55,2.16,3.67,3.8,6.14,4.75.64.26,1.23.44,1.83.57l6.55,1.43-4.95,4.52c-2.35,2.14-4.82,4.2-7.37,6.15l-.23,1.96-2.1-.23c-11.06,8.05-23.3,14.03-36.39,17.79l-13.21,3.8,9.83-9.61c3.66-3.58,5.96-8.17,6.64-13.28.66-4.92-.27-9.81-2.67-14.14-2.67-4.81-6.97-8.49-12.09-10.37-1.58-.58-3.21-.99-4.88-1.21-2.78-.37-5.57-.24-8.28.4l-.7.53-.61-.13-2.64.93c-1.82,1.18-3.01,3.05-3.3,5.18-.26,1.95.25,3.88,1.44,5.44,1.19,1.56,2.91,2.56,4.86,2.82,1.56.2,3.11-.08,4.47-.83l9.52-5.25-4.92,10.15c-5.25,8.93-11.64,17.2-19.01,24.56-1.35,1.38-2.83,2.79-4.37,4.18-2.64,2.4-5.39,4.69-8.16,6.81l-2.43,1.85Zm-71.57-42.91c.95.1,1.9.22,2.84.34l.23.03c4.18.56,8.34,1.33,12.37,2.3,1.54.37,2.92.72,4.21,1.08,15.77,4.33,30.32,11.69,43.23,21.85,3.18,2.49,6.29,5.19,9.27,8.07,1.81-1.46,3.6-2.99,5.35-4.58,1.45-1.3,2.82-2.61,4.09-3.91,5.2-5.2,9.87-10.85,13.97-16.88h-.02c-3.78-.51-7.14-2.46-9.45-5.49-2.31-3.03-3.31-6.78-2.8-10.56.58-4.37,3.1-8.16,6.91-10.4,1.3-.78,2.73-1.34,4.22-1.66l.59-.45.78.15c3.54-.84,7.16-1.02,10.82-.53,2.17.29,4.31.82,6.35,1.58,6.68,2.45,12.28,7.24,15.76,13.51,3.14,5.65,4.34,12.02,3.48,18.43-.38,2.88-1.16,5.63-2.31,8.21,8.6-3.37,16.75-7.83,24.31-13.3l.24-1.95,2.09.22c.93-.71,1.84-1.43,2.74-2.16-2.46-1.44-4.61-3.4-6.31-5.76-3.06-4.29-4.35-9.51-3.66-14.71,1.51-11.24,11.87-19.19,23.12-17.66,2.07.28,4.04.85,5.86,1.71.91.4,1.85.92,2.73,1.51,1.67,1.09,3.17,2.42,4.44,3.94,6.93-12.2,11.4-25.5,13.29-39.61,8.05-60.07-34.28-115.49-94.35-123.54-60.06-8.03-115.49,34.28-123.54,94.35-.12.93-.24,1.87-.34,2.81l-.17,1.12-.62.75c-7.57,8.97-13.61,19.01-17.96,29.86.16,5.89.8,11.75,1.9,17.51,2.35-1.81,5.36-2.74,8.51-2.4h0c.1.01.2.02.29.04,5.36.72,9.55,4.95,10.2,10.31l.04.44c.09.85.07,1.72-.05,2.61-.03.22-.07.43-.11.65-.01.18-.03.36-.05.54s-.04.34-.06.51c-.73,5.43-2.94,10.53-6.41,14.74-1.26,1.53-2.68,2.94-4.23,4.18-1.79,1.46-3.74,2.7-5.83,3.69.6,1.2,1.68,2.14,3.02,2.52l2.89.82-.41,2.98c-.03.24-.06.48-.09.72-.92,8.39,2.19,14.19,9.24,17.32.19-.45.4-.9.62-1.34-4.18-2.14-5.81-5.81-5.2-11.42.02-.2.05-.4.07-.6l.37-2.8,2.81-.21c.33-.02.67-.05,1.01-.06,6.5-.34,13.13-.15,19.69.57Zm105.55,5.46v.02s0-.02,0-.02Zm-5.95-3.56s0,.02-.01.02v-.02Z"/>
      <path class="cls-2" d="m649,227.42c-.7,5.23-2.19,10.19-4.36,14.8-4.16,1.94-8.58,3.48-13.21,4.56-1.87-3.25-3.4-6.63-4.56-10.15,10.29-8.1,17.54-19.29,19.86-32.3,2.47,7.32,3.33,15.14,2.27,23.09Z"/>
      <circle class="cls-2" cx="696.57" cy="217.8" r="31.46"/>
      <g>
        <path class="cls-2" d="m603.08,214.21h-.01c-1.33-3.92-1.84-8.19-1.37-12.57,1.21-11.12,8.48-20.13,18.18-24.05.01,0,.01-.01.02,0,1.19-.49,2.43-.9,3.7-1.22"/>
        <path class="cls-2" d="m619.89,177.6s.01-.01.02,0c1.16-.58,2.4-1.01,3.7-1.22,1.23-.23,2.51-.27,3.82-.13,7.43.81,12.8,7.48,11.99,14.92-.03.23-.05.46-.1.69l.1-.69c-.03.23-.05.46-.1.69-.99,7.61-4.73,14.09-10.23,18.61-.05.04-.1.07-.14.1-.31.26-.61.5-.93.74-.02,0-.04.02-.05.04l.06-.05s-.05.03-.06.05c-1.74,1.45-3.21,3.21-4.34,5.19-.21.36-.42.72-.6,1.1t-.01.02l.69-1.27c-.2.44-.42.87-.69,1.27-2.17,3.41-6.16,5.5-10.45,5.04-3.5-.38-6.44-2.37-8.15-5.15,0,0,0-.01-.01-.01,0-.01-.01-.01,0-.02-.2-.32-.38-.66-.54-1-.34-.72-.61-1.48-.78-2.27"/>
      </g>
      <path class="cls-4" d="m628.71,210.75c.12-.1.24-.19.38-.3"/>
    </g>
    <text class="cls-1" transform="translate(130.47 253.11)"><tspan x="0" y="0">digital</tspan><tspan x="0" y="97.77">design</tspan></text>
  </g>
</svg>