<?xml version="1.0" encoding="utf-8"?>
<!-- Generator: Adobe Illustrator 28.0.0, SVG Export Plug-In . SVG Version: 6.00 Build 0)  -->
<svg version="1.1" xmlns="http://www.w3.org/2000/svg" xmlns:xlink="http://www.w3.org/1999/xlink" x="0px" y="0px"
	 viewBox="0 0 984.1 543.6" style="enable-background:new 0 0 984.1 543.6;" xml:space="preserve">
<style type="text/css">
	.st0{fill:#141414;}
	.st1{fill:#FFFFFF;}
	.st2{fill:none;stroke:#000000;stroke-miterlimit:10;}
	.st3{fill:none;stroke:#000000;stroke-width:6;stroke-miterlimit:10;}
	.st4{opacity:0.92;}
	.st5{font-family:'Caudex';}
	.st6{font-size:110.4666px;}
</style>
<g id="Layer_1">
	
		<image style="overflow:visible;opacity:0.16;" width="606" height="604" xlink:href="../../../Scherm­afbeelding 2025-07-02 om 08.43.40.png"  transform="matrix(0.5 0 0 0.5 -772.9914 229.1899)">
	</image>
</g>
<g id="Layer_3">
	<rect class="st0" width="984.1" height="543.6"/>
	<rect x="-1155.4" class="st0" width="984.1" height="543.6"/>
</g>
<g id="Layer_2">
	<path class="st1" d="M757.6,370.6l-1.1-2c-3.4-6.5-5.2-13.8-5-21.2c0.3-10.4,4.2-20.3,11.2-27.9l1.6-1.7l2.2,0.8
		c22.4,8,43.8,18.9,63.6,32.2l5.9,4l-6.7,2.2c-22.4,7.3-45.8,11.9-69.4,13.5L757.6,370.6z M766.4,325.9c-4.9,6.1-7.7,13.8-7.9,21.7
		c-0.1,5.4,1,10.8,3.2,15.8c19.8-1.5,39.4-5.2,58.5-10.9C803.2,341.7,785.2,332.8,766.4,325.9z"/>
	<path class="st1" d="M572.3,365.6l-1-0.1c-6.8-0.8-13.6-2.1-20.1-4c-6.3-1.8-12.6-4.1-18.6-6.8l-5.2-2.4l4.5-3.5
		c4.7-3.6,9.6-6.9,14.7-9.8c7.7-4.4,15.8-8.1,24.2-10.8l1.3-0.4l1.3,0.6c7.2,3.5,11.8,10.9,11.6,18.9c-0.2,7.8-4.7,14.7-11.8,18
		L572.3,365.6z M541.1,350.7c4,1.6,8,3,12.1,4.1c5.8,1.7,11.9,2.9,18,3.7c4.2-2.3,6.9-6.6,7-11.5l0,0c0.1-4.8-2.4-9.4-6.5-11.9
		c-7.4,2.5-14.7,5.8-21.5,9.8C547.1,346.7,544,348.6,541.1,350.7z"/>
	<path class="st1" d="M610.2,485.4l0.8-5.1l0.4-3c0.4-4.1,0.1-8.2-0.8-12.3c-2.4-10.7-9-20.1-18.1-25.9l-4.1-2.6l3.7-3.1
		c1.3-1.1,2.4-2.4,3.2-4c-1.6-2.1-2.8-4.7-3.4-7.4c-0.8-3.4-0.6-7,0.6-10.3c1.8-5.4,5.9-9.7,11.2-11.8l9.2-3.6l-4.9,8.6
		c-1.5,2.7-2,5.8-1.3,8.8c1.5,6.8,10.5,10.6,17,9.2l0.2,0c1.8-0.3,3.7-0.7,5.5-1.1c27.9-6.2,52.4-22.4,68.8-45.8l2.5-3.6l2.9,3.3
		c3,3.4,6.2,6.6,9.5,9.5c4,3.5,8.3,6.9,12.8,9.9l0.5,0.3c0.5,0.3,0.9,0.6,1.4,0.9c1.3,0.6,2.7,0.8,4.2,0.4c3.2-0.7,5.3-3.5,5.2-6.7
		c-0.1-0.7-0.2-1.3-0.4-2l0-0.1c-0.2-1-0.4-2-0.6-3c-0.8-3.7-1.8-7.4-3-11c-1.9-6-4.4-11.8-7.3-17.3l6.1-3.3
		c3.5,6.2,7.6,12.2,12.2,17.6c5.9,7,12.7,13.4,20.3,18.9l3.2,2.3l-2.7,2.9c-40,42.7-91,73.3-147.5,88.5l-0.2,0
		c-0.6,0.2-1.3,0.3-1.9,0.5L610.2,485.4z M599.7,435.6c8.9,6.8,15.3,16.7,17.7,27.9c0.9,4.2,1.3,8.4,1.1,12.6
		c52.9-14.8,100.8-43.4,138.8-82.9c-5.6-4.3-10.7-9.1-15.4-14.3c0.4,1.6,0.8,3.1,1.1,4.7c0.2,1,0.4,2,0.6,3l0,0.1
		c0.1,0.8,0.3,1.6,0.4,2.4l0,0.4c0.4,6.7-4,12.6-10.6,14c-2.6,0.6-5.3,0.4-7.8-0.6l-1,0.2l-0.9-1.1c-0.3-0.2-0.7-0.4-1-0.7l-0.6-0.1
		l-0.5-0.5c-4.6-3.1-9.1-6.6-13.2-10.2c-2.5-2.2-4.9-4.5-7.2-6.9c-17.4,22.9-42.3,38.9-70.5,45.1c-1.9,0.4-3.8,0.8-5.7,1.1
		c-9.9,2.1-22.8-3.6-25.2-14.5c-0.2-0.8-0.3-1.6-0.4-2.4c-0.2,0.4-0.3,0.8-0.5,1.2c-0.7,2.1-0.8,4.4-0.4,6.6c0.4,1.8,1.2,3.5,2.4,5
		c0.2,0.3,0.5,0.6,0.7,0.9l1.5,1.5l-0.7,2C602,432,601,433.9,599.7,435.6z"/>
	<g>
		<path class="st1" d="M694.9,322.1l-2.1-2.2c-3.4-3.5-7.1-6.7-10.8-9.7c-12.2-9.6-25.9-16.5-40.8-20.6c-1.2-0.3-2.5-0.7-4-1
			c-3.8-0.9-7.7-1.6-11.7-2.2l-0.2,0c-0.4,0-0.7-0.1-1.1-0.1c-6-0.7-12-1-18-0.8c0.2,1.7,1.4,2.4,4.3,3l5.2,1.1l-3.1,4.3
			c-1.5,2-2.5,4.2-3.1,6.5l-0.9,3.4l-3.4-1c-12-3.6-18.1-12.1-17.4-24.1c-3.5-2.1-5.8-5.9-5.8-10.1l0-2.5l2.3-0.8
			c2.4-0.8,4.6-2.1,6.6-3.7c1.2-1,2.3-2,3.2-3.2c2.6-3.2,4.3-7.1,4.9-11.3c0-0.1,0-0.2,0-0.3c0-0.2,0-0.3,0-0.5l0,0l0.1-2.5l0,0
			c-0.4-2-2.1-3.6-4.2-3.9c-2.7-0.4-5.2,1.5-5.5,4.2c0,0.3-0.1,0.6,0,0.9c0.1,0.4,0.2,0.7,0.3,1.1l0,0l0.2,0.6c0,0,0,0,0,0.1
			l0.2,0.6c0,0.1,0,0.1,0.1,0.2l-0.1,0l-0.1,0.7l-1-0.2l-5.2,2.2c-0.2-0.4-0.4-0.9-0.6-1.3l-0.3-0.4l0-0.3c-0.2-0.6-0.3-1.3-0.4-1.9
			c-2.7-9.4-4.1-19.2-4.3-29l0-0.3l0.1-0.7l0.1-0.4c4.5-11.5,10.8-22.1,18.7-31.6c0.1-0.6,0.2-1.3,0.2-1.9
			c8.6-63.9,67.5-108.9,131.3-100.3c63.9,8.6,108.9,67.5,100.3,131.3c-2.3,17-8.1,32.9-17.2,47.2l-3.6,5.7l-2.5-6.2
			c-0.4-0.9-0.9-1.8-1.5-2.7c-1-1.4-2.2-2.5-3.6-3.5c-0.6-0.4-1.2-0.7-1.8-1c-1.2-0.6-2.5-1-3.9-1.1c-7.4-1-14.3,4.3-15.3,11.7
			c-0.5,3.4,0.4,6.9,2.4,9.8c1.5,2.2,3.7,3.8,6.1,4.8c0.6,0.3,1.2,0.4,1.8,0.6l6.5,1.4l-5,4.5c-2.3,2.1-4.8,4.2-7.4,6.2l-0.2,2
			l-2.1-0.2c-11.1,8-23.3,14-36.4,17.8l-13.2,3.8l9.8-9.6c3.7-3.6,6-8.2,6.6-13.3c0.7-4.9-0.3-9.8-2.7-14.1
			c-2.7-4.8-7-8.5-12.1-10.4c-1.6-0.6-3.2-1-4.9-1.2c-2.8-0.4-5.6-0.2-8.3,0.4l-0.7,0.5l-0.6-0.1l-2.6,0.9c-1.8,1.2-3,3-3.3,5.2
			c-0.3,1.9,0.2,3.9,1.4,5.4c1.2,1.6,2.9,2.6,4.9,2.8c1.6,0.2,3.1-0.1,4.5-0.8l9.5-5.2l-4.9,10.2c-5.2,8.9-11.6,17.2-19,24.6
			c-1.4,1.4-2.8,2.8-4.4,4.2c-2.6,2.4-5.4,4.7-8.2,6.8L694.9,322.1z M623.4,279.2c0.9,0.1,1.9,0.2,2.8,0.3l0.2,0
			c4.2,0.6,8.3,1.3,12.4,2.3c1.5,0.4,2.9,0.7,4.2,1.1c15.8,4.3,30.3,11.7,43.2,21.9c3.2,2.5,6.3,5.2,9.3,8.1c1.8-1.5,3.6-3,5.3-4.6
			c1.4-1.3,2.8-2.6,4.1-3.9c5.2-5.2,9.9-10.9,14-16.9c0,0,0,0,0,0c-3.8-0.5-7.1-2.5-9.4-5.5c-2.3-3-3.3-6.8-2.8-10.6
			c0.6-4.4,3.1-8.2,6.9-10.4c1.3-0.8,2.7-1.3,4.2-1.7l0.6-0.4l0.8,0.2c3.5-0.8,7.2-1,10.8-0.5c2.2,0.3,4.3,0.8,6.4,1.6
			c6.7,2.4,12.3,7.2,15.8,13.5c3.1,5.6,4.3,12,3.5,18.4c-0.4,2.9-1.2,5.6-2.3,8.2c8.6-3.4,16.7-7.8,24.3-13.3l0.2-2l2.1,0.2
			c0.9-0.7,1.8-1.4,2.7-2.2c-2.5-1.4-4.6-3.4-6.3-5.8c-3.1-4.3-4.4-9.5-3.7-14.7c1.5-11.2,11.9-19.2,23.1-17.7
			c2.1,0.3,4,0.9,5.9,1.7c0.9,0.4,1.9,0.9,2.7,1.5c1.7,1.1,3.2,2.4,4.4,3.9c6.9-12.2,11.4-25.5,13.3-39.6
			c8-60.1-34.3-115.5-94.4-123.5c-60.1-8-115.5,34.3-123.5,94.4c-0.1,0.9-0.2,1.9-0.3,2.8l-0.2,1.1l-0.6,0.7c-7.6,9-13.6,19-18,29.9
			c0.2,5.9,0.8,11.7,1.9,17.5c2.3-1.8,5.4-2.7,8.5-2.4l0,0c0.1,0,0.2,0,0.3,0c5.4,0.7,9.6,5,10.2,10.3l0,0.4c0.1,0.8,0.1,1.7,0,2.6
			c0,0.2-0.1,0.4-0.1,0.6c0,0.2,0,0.4-0.1,0.5c0,0.2,0,0.3-0.1,0.5c-0.7,5.4-2.9,10.5-6.4,14.7c-1.3,1.5-2.7,2.9-4.2,4.2
			c-1.8,1.5-3.7,2.7-5.8,3.7c0.6,1.2,1.7,2.1,3,2.5l2.9,0.8l-0.4,3c0,0.2-0.1,0.5-0.1,0.7c-0.9,8.4,2.2,14.2,9.2,17.3
			c0.2-0.5,0.4-0.9,0.6-1.3c-4.2-2.1-5.8-5.8-5.2-11.4c0-0.2,0-0.4,0.1-0.6l0.4-2.8l2.8-0.2c0.3,0,0.7,0,1-0.1
			C610.2,278.3,616.8,278.5,623.4,279.2z M728.9,284.7L728.9,284.7C728.9,284.7,728.9,284.7,728.9,284.7z M723,281.1
			C723,281.1,723,281.2,723,281.1L723,281.1z"/>
		<path class="st1" d="M649,227.4c-0.7,5.2-2.2,10.2-4.4,14.8c-4.2,1.9-8.6,3.5-13.2,4.6c-1.9-3.2-3.4-6.6-4.6-10.1
			c10.3-8.1,17.5-19.3,19.9-32.3C649.2,211.7,650.1,219.5,649,227.4z"/>
		<circle class="st1" cx="696.6" cy="217.8" r="31.5"/>
		<path class="st2" d="M604.4,217.5"/>
		<g>
			<path class="st1" d="M603.1,214.2L603.1,214.2c-1.3-3.9-1.9-8.2-1.4-12.6c1.2-11.1,8.5-20.1,18.2-24c0,0,0,0,0,0
				c1.2-0.5,2.4-0.9,3.7-1.2"/>
			<path class="st1" d="M619.9,177.6C619.9,177.6,619.9,177.6,619.9,177.6c1.2-0.6,2.4-1,3.7-1.2c1.2-0.2,2.5-0.3,3.8-0.1
				c7.4,0.8,12.8,7.5,12,14.9c0,0.2,0,0.5-0.1,0.7l0.1-0.7c0,0.2,0,0.5-0.1,0.7c-1,7.6-4.7,14.1-10.2,18.6c-0.1,0-0.1,0.1-0.1,0.1
				c-0.3,0.3-0.6,0.5-0.9,0.7c0,0,0,0-0.1,0l0.1-0.1c0,0,0,0-0.1,0.1c-1.7,1.4-3.2,3.2-4.3,5.2c-0.2,0.4-0.4,0.7-0.6,1.1
				c0,0,0,0,0,0l0.7-1.3c-0.2,0.4-0.4,0.9-0.7,1.3c-2.2,3.4-6.2,5.5-10.5,5c-3.5-0.4-6.4-2.4-8.1-5.2c0,0,0,0,0,0c0,0,0,0,0,0
				c-0.2-0.3-0.4-0.7-0.5-1c-0.3-0.7-0.6-1.5-0.8-2.3"/>
		</g>
		<path d="M628.7,210.7c0.1-0.1,0.2-0.2,0.4-0.3"/>
		<path class="st3" d="M778.4,124.6"/>
	</g>
	<text transform="matrix(1 0 0 1 130.4688 253.1132)" class="st4"><tspan x="0" y="0" class="st1 st5 st6">digital</tspan><tspan x="0" y="97.8" class="st1 st5 st6">design</tspan></text>
	<g>
		<path class="st1" d="M-397.8,370.6l-1.1-2c-3.4-6.5-5.2-13.8-5-21.2c0.3-10.4,4.2-20.3,11.2-27.9l1.6-1.7l2.2,0.8
			c22.4,8,43.8,18.9,63.6,32.2l5.9,4l-6.7,2.2c-22.4,7.3-45.8,11.9-69.4,13.5L-397.8,370.6z M-389,325.9c-4.9,6.1-7.7,13.8-7.9,21.7
			c-0.1,5.4,1,10.8,3.2,15.8c19.8-1.5,39.4-5.2,58.5-10.9C-352.2,341.7-370.2,332.8-389,325.9z"/>
		<path class="st1" d="M-583,365.6l-1-0.1c-6.8-0.8-13.6-2.1-20.1-4c-6.3-1.8-12.6-4.1-18.6-6.8l-5.2-2.4l4.5-3.5
			c4.7-3.6,9.6-6.9,14.7-9.8c7.7-4.4,15.8-8.1,24.2-10.8l1.3-0.4l1.3,0.6c7.2,3.5,11.8,10.9,11.6,18.9c-0.2,7.8-4.7,14.7-11.8,18
			L-583,365.6z M-614.3,350.7c4,1.6,8,3,12.1,4.1c5.8,1.7,11.9,2.9,18,3.7c4.2-2.3,6.9-6.6,7-11.5l0,0c0.1-4.8-2.4-9.4-6.5-11.9
			c-7.4,2.5-14.7,5.8-21.5,9.8C-608.3,346.7-611.4,348.6-614.3,350.7z"/>
		<path class="st1" d="M-571.3,441.7l2-4.8l1.1-2.9c1.3-3.9,2.1-8,2.2-12.1c0.3-11-3.9-21.7-11.4-29.5l-3.3-3.4l4.3-2.1
			c1.5-0.7,2.9-1.8,4-3.1c-1-2.5-1.6-5.2-1.5-8c0.1-3.5,1.1-7,3-9.9c3.1-4.8,8.1-8,13.7-8.8l9.8-1.3l-6.8,7.2
			c-2.1,2.2-3.3,5.2-3.4,8.2c-0.2,7,7.7,12.8,14.3,13l0.2,0c1.9,0.1,3.7,0.2,5.6,0.3c28.6,0.7,56.2-9.2,77.8-28l3.3-2.9l2,3.9
			c2.1,4,4.4,7.8,6.9,11.5c3,4.4,6.4,8.6,10,12.6l0.4,0.4c0.4,0.4,0.7,0.8,1.1,1.2c1.1,0.9,2.5,1.4,3.9,1.4c3.2,0.1,6-2.1,6.6-5.2
			c0-0.7,0.1-1.4,0.1-2l0-0.1c0-1,0.1-2,0.1-3c0.1-3.8,0-7.7-0.3-11.4c-0.5-6.3-1.4-12.5-2.9-18.5l6.7-1.7c1.9,6.9,4.5,13.6,7.6,20
			c4.1,8.2,9.2,16,15.2,23.2l2.5,3l-3.3,2.1c-49,31.9-105.8,49.4-164.4,50.6l-0.2,0c-0.7,0-1.3,0-2,0L-571.3,441.7z M-569.6,390.8
			c7,8.7,10.8,19.9,10.5,31.3c-0.1,4.3-0.8,8.5-2,12.5c54.9-1.7,108.2-18,154.6-47.3c-4.4-5.5-8.2-11.4-11.6-17.6c0,1.6,0,3.2,0,4.8
			c0,1-0.1,2.1-0.1,3.1l0,0.1c0,0.8-0.1,1.6-0.2,2.4l0,0.4c-1.2,6.6-6.9,11.3-13.7,11.1c-2.7-0.1-5.2-0.9-7.4-2.4l-1-0.1l-0.6-1.3
			c-0.3-0.3-0.6-0.6-0.8-0.9l-0.5-0.3l-0.3-0.6c-3.8-4.1-7.2-8.5-10.4-13.1c-1.9-2.7-3.6-5.5-5.3-8.4c-22.4,18.1-50.3,27.7-79.2,27
			c-1.9,0-3.9-0.1-5.8-0.3c-10.2-0.3-21.3-8.9-21-20.1c0-0.8,0.1-1.6,0.2-2.4c-0.3,0.3-0.5,0.7-0.7,1c-1.2,1.9-1.9,4.1-1.9,6.4
			c0,1.9,0.3,3.7,1.1,5.4c0.2,0.4,0.3,0.7,0.5,1l1,1.8l-1.1,1.8C-566.6,387.9-568,389.5-569.6,390.8z"/>
		<g>
			<path class="st1" d="M-467.7,344.2l-2.4-1.9c-3.8-3.1-7.8-5.9-11.8-8.4c-13.2-8.2-27.6-13.6-42.8-16.1c-1.2-0.2-2.6-0.4-4-0.6
				c-3.9-0.5-7.9-0.8-11.9-0.9l-0.2,0c-0.4,0-0.7,0-1.1,0c-6-0.1-12.1,0.3-18,1.1c0.4,1.7,1.7,2.2,4.6,2.5l5.2,0.6l-2.6,4.6
				c-1.2,2.1-2,4.4-2.4,6.8l-0.6,3.5l-3.5-0.6c-12.3-2.3-19.3-10.1-19.9-22.1c-3.7-1.7-6.4-5.2-6.9-9.4l-0.3-2.5l2.2-1.1
				c2.3-1.1,4.4-2.6,6.2-4.4c1.1-1.1,2.1-2.3,2.9-3.5c2.3-3.5,3.5-7.5,3.6-11.7c0-0.1,0-0.2,0-0.3c0-0.2,0-0.3,0-0.5l0,0l-0.2-2.5
				l0,0c-0.6-2-2.5-3.3-4.6-3.4c-2.7-0.1-5,2.1-5.1,4.8c0,0.3,0,0.6,0.1,0.9c0.1,0.4,0.3,0.7,0.4,1.1l0,0l0.2,0.6c0,0,0,0,0,0.1
				l0.2,0.6c0,0.1,0,0.1,0.1,0.2l-0.1,0l0,0.7l-1-0.1l-4.9,2.8c-0.3-0.4-0.5-0.8-0.7-1.2l-0.3-0.4l0-0.3c-0.3-0.6-0.5-1.2-0.6-1.9
				c-3.7-9.1-6.2-18.6-7.4-28.4l0-0.3l0-0.7l0.1-0.4c3.2-11.9,8.3-23.1,15.2-33.5c0-0.6,0-1.3,0-1.9
				c1.6-64.4,55.3-115.5,119.7-113.9c64.4,1.6,115.5,55.3,113.9,119.7c-0.4,17.1-4.5,33.5-12,48.8l-3,6l-3.2-5.9
				c-0.5-0.8-1-1.7-1.8-2.5c-1.1-1.3-2.4-2.3-4-3.1c-0.6-0.3-1.2-0.6-1.9-0.8c-1.3-0.4-2.6-0.7-4-0.7c-7.5-0.2-13.8,5.8-14,13.3
				c-0.1,3.5,1.1,6.8,3.5,9.4c1.8,2,4.1,3.4,6.6,4.1c0.7,0.2,1.3,0.3,1.9,0.4l6.7,0.7l-4.4,5c-2.1,2.4-4.3,4.7-6.7,6.9l0,2h-2.1
				c-10.1,9.2-21.6,16.5-34.3,21.6l-12.7,5.2l8.7-10.6c3.3-4,5-8.8,5.2-13.9c0.1-5-1.3-9.7-4.2-13.8c-3.2-4.5-7.8-7.7-13.1-9
				c-1.6-0.4-3.3-0.6-5-0.7c-2.8-0.1-5.6,0.4-8.2,1.3l-0.6,0.6l-0.6-0.1l-2.5,1.2c-1.7,1.4-2.7,3.4-2.7,5.5c0,2,0.7,3.8,2,5.3
				c1.3,1.4,3.2,2.2,5.1,2.3c1.6,0,3.1-0.4,4.4-1.3l8.9-6.2l-3.8,10.6c-4.3,9.4-9.7,18.4-16.2,26.5c-1.2,1.5-2.5,3.1-3.9,4.6
				c-2.4,2.7-4.8,5.3-7.4,7.6L-467.7,344.2z M-543.5,309.3c1,0,1.9,0,2.9,0l0.2,0c4.2,0.1,8.4,0.4,12.5,1c1.6,0.2,3,0.4,4.3,0.6
				c16.1,2.6,31.4,8.3,45.3,17c3.4,2.1,6.8,4.5,10.1,7c1.6-1.6,3.3-3.4,4.8-5.1c1.3-1.5,2.5-2.9,3.6-4.3c4.6-5.7,8.6-11.9,12.1-18.3
				c0,0,0,0,0,0c-3.8-0.1-7.4-1.7-10-4.4c-2.6-2.8-4-6.4-3.9-10.2c0.1-4.4,2.2-8.4,5.7-11.1c1.2-0.9,2.6-1.6,4-2.1l0.5-0.5l0.8,0.1
				c3.4-1.2,7-1.8,10.7-1.7c2.2,0.1,4.4,0.3,6.5,0.9c6.9,1.7,13,5.9,17.1,11.7c3.7,5.3,5.6,11.5,5.5,17.9c-0.1,2.9-0.5,5.7-1.4,8.4
				c8.2-4.3,15.8-9.6,22.7-15.9l0-2l2.1,0c0.8-0.8,1.7-1.6,2.5-2.4c-2.6-1.2-5-2.9-6.9-5c-3.5-3.9-5.4-9-5.2-14.2
				c0.3-11.3,9.7-20.4,21.1-20.1c2.1,0.1,4.1,0.4,6,1.1c0.9,0.3,1.9,0.7,2.9,1.2c1.8,0.9,3.4,2.1,4.8,3.4
				c5.6-12.9,8.6-26.6,8.9-40.8c1.5-60.6-46.6-111.1-107.2-112.6c-60.6-1.5-111.1,46.6-112.6,107.2c0,0.9,0,1.9,0,2.8l-0.1,1.1
				l-0.5,0.8c-6.6,9.7-11.5,20.4-14.6,31.6c0.8,5.8,2.1,11.6,3.8,17.2c2.1-2,5-3.3,8.2-3.3l0,0c0.1,0,0.2,0,0.3,0
				c5.4,0.1,10,3.9,11.3,9.1l0.1,0.4c0.2,0.8,0.3,1.7,0.2,2.6c0,0.2,0,0.4,0,0.7c0,0.2,0,0.4,0,0.5c0,0.2,0,0.3,0,0.5
				c-0.1,5.5-1.8,10.8-4.8,15.3c-1.1,1.7-2.3,3.2-3.8,4.6c-1.6,1.6-3.4,3.1-5.4,4.3c0.7,1.1,1.9,1.9,3.3,2.2l3,0.5l-0.1,3
				c0,0.2,0,0.5,0,0.7c0,8.4,3.7,13.9,11.1,16.2c0.1-0.5,0.3-0.9,0.5-1.4c-4.4-1.7-6.4-5.1-6.4-10.8c0-0.2,0-0.4,0-0.6l0.1-2.8
				l2.8-0.5c0.3-0.1,0.7-0.1,1-0.2C-556.7,309.8-550.1,309.3-543.5,309.3z M-437.9,303.3L-437.9,303.3
				C-438,303.3-437.9,303.3-437.9,303.3z M-444.2,300.4C-444.2,300.4-444.3,300.4-444.2,300.4L-444.2,300.4z"/>
			<path class="st1" d="M-523.6,255c-0.1,5.3-1.1,10.4-2.7,15.2c-3.9,2.4-8.2,4.4-12.6,6c-2.2-3-4.1-6.2-5.6-9.6
				c9.4-9.2,15.4-21.1,16.2-34.3C-525.1,239.3-523.4,247-523.6,255z"/>
			<circle class="st1" cx="-477.3" cy="240.3" r="31.5"/>
			<path class="st2" d="M-569,250"/>
			<g>
				<path class="st1" d="M-570.7,246.8L-570.7,246.8c-1.8-3.8-2.7-7.9-2.7-12.3c0-11.2,6.3-20.9,15.5-25.9c0,0,0,0,0,0
					c1.1-0.6,2.3-1.2,3.5-1.6"/>
				<path class="st1" d="M-557.9,208.6C-557.9,208.6-557.9,208.6-557.9,208.6c1.1-0.7,2.3-1.3,3.6-1.6c1.2-0.4,2.5-0.5,3.8-0.5
					c7.5,0,13.5,6.1,13.5,13.5c0,0.2,0,0.5,0,0.7l0-0.7c0,0.2,0,0.5,0,0.7c-0.2,7.7-3.2,14.5-8.2,19.6c0,0-0.1,0.1-0.1,0.1
					c-0.3,0.3-0.6,0.6-0.8,0.8c0,0,0,0,0,0l0.1-0.1c0,0,0,0-0.1,0.1c-1.6,1.6-2.8,3.5-3.8,5.6c-0.2,0.4-0.3,0.8-0.5,1.2c0,0,0,0,0,0
					l0.5-1.3c-0.2,0.5-0.3,0.9-0.5,1.3c-1.8,3.6-5.5,6.1-9.8,6.1c-3.5,0-6.7-1.7-8.7-4.2c0,0,0,0,0,0c0,0,0,0,0,0
					c-0.2-0.3-0.5-0.6-0.6-0.9c-0.4-0.7-0.8-1.4-1-2.2"/>
			</g>
			<path d="M-545.6,240.6c0.1-0.1,0.2-0.2,0.3-0.3"/>
			<path class="st3" d="M-406.1,138.8"/>
		</g>
	</g>
	<text transform="matrix(1 0 0 1 -1024.9171 253.1132)" class="st4"><tspan x="0" y="0" class="st1 st5 st6">digital</tspan><tspan x="0" y="97.8" class="st1 st5 st6">design</tspan></text>
</g>
</svg>
